<svg xmlns="http://www.w3.org/2000/svg" aria-hidden="true" style="position:absolute;width:0;height:0;overflow:hidden">
  <defs>
    <symbol id="icon-discord" viewBox="0 0 32 32">
      <path fill="#7289da" d="M26.963 0c1.875 0 3.387 1.516 3.476 3.3V32l-3.569-3.031-1.96-1.784-2.139-1.864.893 2.94H4.947c-1.869 0-3.387-1.42-3.387-3.301V3.307C1.56 1.523 3.08.004 4.953.004h22zm-8.158 7.577h-.04l-.269.267c2.764.8 4.101 2.049 4.101 2.049-1.781-.891-3.387-1.336-4.992-1.516-1.16-.18-2.32-.085-3.3 0h-.267c-.627 0-1.96.267-3.747.98-.623.271-.98.448-.98.448s1.336-1.336 4.28-2.049l-.18-.18s-2.229-.085-4.636 1.693c0 0-2.407 4.192-2.407 9.36 0 0 1.333 2.32 4.991 2.408 0 0 .533-.711 1.073-1.336-2.053-.624-2.853-1.872-2.853-1.872s.179.088.447.267h.08c.04 0 .059.02.08.04v.008c.021.021.04.04.08.04.44.181.88.36 1.24.533.621.269 1.42.537 2.4.715 1.24.18 2.661.267 4.28 0 .8-.18 1.6-.356 2.4-.713.52-.267 1.16-.533 1.863-.983 0 0-.8 1.248-2.94 1.872.44.621 1.06 1.333 1.06 1.333 3.659-.08 5.08-2.4 5.16-2.301 0-5.16-2.42-9.36-2.42-9.36-2.18-1.619-4.22-1.68-4.58-1.68zm.224 5.884c.937 0 1.693.8 1.693 1.78 0 .987-.76 1.787-1.693 1.787s-1.693-.8-1.693-1.779c.003-.987.764-1.784 1.693-1.788zm-6.057 0c.933 0 1.688.8 1.688 1.78 0 .987-.76 1.787-1.693 1.787s-1.693-.8-1.693-1.779c0-.987.76-1.784 1.699-1.788z" style="fill:var(--color1, #7289da)"/>
    </symbol>
    <symbol id="icon-facebook" viewBox="0 0 32 32">
      <path fill="#1877f2" d="M31.997 15.999C31.997 7.163 24.834 0 15.998 0S-.001 7.163-.001 15.999c0 7.985 5.851 14.604 13.499 15.804v-11.18H9.436v-4.625h4.062v-3.525c0-4.01 2.389-6.225 6.043-6.225 1.75 0 3.581.313 3.581.313v3.937h-2.017c-1.987 0-2.607 1.233-2.607 2.498v3.001h4.437l-.709 4.625h-3.728v11.18c7.649-1.2 13.499-7.819 13.499-15.804z" style="fill:var(--color2, #1877f2)"/>
    </symbol>
    <symbol id="icon-gmail" viewBox="0 0 32 32">
      <path fill="#d14836" d="M32 6v20c0 1.133-.867 2-2 2h-2V9.849l-12 8.617L4 9.849V28H2c-1.135 0-2-.867-2-2V6c0-.567.216-1.067.575-1.424A1.98 1.98 0 0 1 2 4h.667L16 13.667 29.333 4H30c.567 0 1.067.216 1.425.576.36.357.575.857.575 1.424z" style="fill:var(--color3, #d14836)"/>
    </symbol>
    <symbol id="icon-youtube" viewBox="0 0 32 32">
      <path fill="red" d="M31.327 8.273a4.026 4.026 0 0 0-2.756-2.777l-.028-.007c-2.493-.668-12.528-.668-12.528-.668s-10.009-.013-12.528.668A4.026 4.026 0 0 0 .71 8.245l-.007.028C.26 10.554.007 13.176.007 15.858v.163-.008.126c0 2.682.253 5.304.737 7.845l-.041-.26a4.026 4.026 0 0 0 2.756 2.777l.028.007c2.491.669 12.528.669 12.528.669s10.008 0 12.528-.669a4.026 4.026 0 0 0 2.777-2.756l.007-.028c.425-2.233.668-4.803.668-7.429l-.001-.297v.015l.001-.31c0-2.626-.243-5.196-.708-7.687l.04.258zM12.812 20.801V11.21l8.352 4.803z" style="fill:var(--color4, #f00)"/>
    </symbol>
  </defs>
</svg>
